<svg width="20" height="19" viewBox="0 0 20 19" fill="none" xmlns="http://www.w3.org/2000/svg">
<path d="M19.3917 8.88166L11.225 0.714995C10.9999 0.49617 10.6752 0.414044 10.3732 0.499555C10.0711 0.585065 9.83763 0.825219 9.76066 1.12955C9.68369 1.43389 9.77493 1.75617 10 1.975L16.6617 8.62499H1.22667C0.74342 8.62499 0.351669 9.01675 0.351669 9.49999C0.351669 9.98324 0.74342 10.375 1.22667 10.375H16.65L10 17.025C9.83323 17.1875 9.73917 17.4105 9.73917 17.6433C9.73917 17.8762 9.83323 18.0992 10 18.2617C10.1608 18.4304 10.3853 18.5236 10.6183 18.5183C10.8506 18.5194 11.0735 18.4269 11.2367 18.2617L19.4033 10.095C19.7445 9.75337 19.7445 9.19995 19.4033 8.85833L19.3917 8.88166Z" fill="white"/>
</svg>
