<svg width="23" height="24" viewBox="0 0 23 24" fill="none" xmlns="http://www.w3.org/2000/svg">
<path fill-rule="evenodd" clip-rule="evenodd" d="M1.73872 6.9477C3.40262 2.95229 7.30121 0.345191 11.6292 0.333631C16.2938 0.309068 20.4414 3.29688 21.8954 7.72909C23.3495 12.1613 21.7778 17.0254 18.0051 19.7688C14.2325 22.5121 9.1208 22.508 5.35256 19.7586L1.99256 23.1186C1.65094 23.4598 1.09752 23.4598 0.755897 23.1186C0.414701 22.777 0.414701 22.2236 0.755897 21.882L4.0109 18.627C0.97045 15.5468 0.0748155 10.9431 1.73872 6.9477ZM3.29873 14.5307C4.69578 17.8973 7.98425 20.09 11.6292 20.0853V20.0386C16.5762 20.0323 20.5922 16.0372 20.6242 11.0903C20.6289 7.44532 18.4363 4.15685 15.0697 2.7598C11.703 1.36274 7.82628 2.13257 5.2489 4.70996C2.67151 7.28735 1.90168 11.1641 3.29873 14.5307Z" fill="#1D1D1D"/>
</svg>
