<svg width="200" height="200" viewBox="0 0 200 200" fill="none" xmlns="http://www.w3.org/2000/svg">
<g clip-path="url(#clip0_65_78)">
<path d="M172.636 108.864L172.737 93.0039H174.555L183.946 80.5285H199.598L183.845 99.9666H179.907L172.636 108.864ZM160.115 117.664V67.8907H173.869V117.664H160.115ZM184.047 117.664L175.16 102.965L184.249 93.4873L200.001 117.664H184.047Z" fill="black"/>
<path d="M137.848 117.498C133.669 117.498 130.092 116.667 127.117 115.005C124.141 113.326 121.86 110.993 120.272 108.005C118.684 105 117.89 101.516 117.89 97.5541C117.89 93.5934 118.684 90.1173 120.272 87.1297C121.86 84.1251 124.141 81.7911 127.117 80.129C130.092 78.4499 133.669 77.6117 137.848 77.6117C141.625 77.6117 144.893 78.2993 147.652 79.6759C150.426 81.0354 152.574 82.966 154.094 85.4676C155.616 87.9522 156.385 90.759 156.402 94.116H143.564C143.38 92.0845 142.795 90.6543 141.809 89.5973C140.839 88.5233 139.586 87.9863 138.048 87.9863C136.845 87.9863 135.792 88.3386 134.889 89.0433C133.987 89.7322 133.285 90.7813 132.783 92.1906C132.282 93.5842 132.031 95.3393 132.031 97.4545C132.031 99.5685 132.282 101.331 132.783 102.742C133.285 104.136 133.987 105.185 134.889 105.889C135.792 106.578 136.845 106.921 138.048 106.921C139.067 106.921 139.971 106.687 140.756 106.217C141.541 105.73 142.177 105.025 142.661 104.102C143.163 103.161 143.464 102.336 143.564 100.993H156.402C156.351 104.401 155.574 107.056 154.069 109.591C152.566 112.109 150.435 114.057 147.676 115.434C144.935 116.81 141.659 117.498 137.848 117.498Z" fill="black"/>
<path fill-rule="evenodd" clip-rule="evenodd" d="M113.878 77.778H114.284V117.664H100.53V89.0315C102.638 87.8959 104.64 86.5167 106.487 85.0197C109.425 82.6386 111.958 79.9968 113.878 77.778ZM96.4033 90.8717V117.664C96.4033 132.109 82.6496 132.109 82.6496 132.109H64.7727V121.798L78.5264 121.794C80.0981 121.794 82.6496 121.794 82.6496 117.664V90.9071C84.867 91.6759 87.159 92.1225 89.4734 92.1225C91.8218 92.1225 94.1505 91.6615 96.4033 90.8717ZM78.5238 89.0812V117.664H64.7687V77.778L65.142 77.7754C67.049 79.9942 69.5664 82.6346 72.4871 85.0145C74.3562 86.5351 76.385 87.9339 78.5238 89.0812Z" fill="black"/>
<path d="M89.4733 76.8995C72.694 76.8995 64.7645 70.3905 64.7645 70.3905C64.7645 70.3905 76.499 87.8728 89.4733 87.8728C102.446 87.8728 114.282 70.3905 114.282 70.3905C114.282 70.3905 106.253 76.8995 89.4733 76.8995Z" fill="black"/>
<path d="M0.0012207 117.664V77.778H13.755V86.0295C14.571 83.5685 15.9632 81.4139 17.9331 79.9784C19.9017 78.5429 22.2461 77.778 24.9626 77.778C27.7131 77.778 30.0824 78.5089 32.0693 79.9784C34.0549 81.4309 35.252 83.6208 35.6607 86.0295H36.068C36.7294 83.6208 38.1387 81.4349 40.2959 79.9823C42.4518 78.5128 44.9822 77.778 47.886 77.778C51.6384 77.778 54.6784 78.9909 57.0045 81.4178C59.3477 83.8448 60.5199 87.0747 60.5199 91.1074V117.664H47.4524V94.2823C47.4524 94.2823 47.4524 89.4689 42.2946 89.4689C37.4812 89.4689 37.1368 94.2823 37.1368 94.2823V117.664H24.0706V94.2823C24.0706 94.2823 24.0706 89.4689 18.9128 89.4689C14.0995 89.4689 13.755 94.2823 13.755 94.2823V117.664H0.0012207Z" fill="black"/>
</g>
<defs>
<clipPath id="clip0_65_78">
<rect width="200" height="200" fill="white"/>
</clipPath>
</defs>
</svg>
