<svg width="200" height="200" viewBox="0 0 200 200" fill="none" xmlns="http://www.w3.org/2000/svg">
<g clip-path="url(#clip0_65_78)">
<path d="M158.109 107.091L158.189 94.4035H159.644L167.157 84.4231H179.678L167.076 99.9736H163.925L158.109 107.091ZM148.092 114.132V74.3127H159.095V114.132H148.092ZM167.237 114.132L160.128 102.372L167.399 94.7901L180.001 114.132H167.237Z" fill="black"/>
<path d="M130.278 113.999C126.934 113.999 124.073 113.334 121.693 112.005C119.313 110.661 117.487 108.795 116.217 106.404C114.946 104 114.311 101.213 114.311 98.0436C114.311 94.875 114.946 92.0941 116.217 89.704C117.487 87.3004 119.313 85.4332 121.693 84.1035C124.073 82.7602 126.934 82.0896 130.278 82.0896C133.3 82.0896 135.914 82.6397 138.121 83.7409C140.34 84.8286 142.058 86.373 143.275 88.3744C144.492 90.3621 145.108 92.6075 145.121 95.2931H134.851C134.704 93.6679 134.235 92.5237 133.446 91.6781C132.671 90.8189 131.668 90.3893 130.438 90.3893C129.475 90.3893 128.633 90.6712 127.911 91.2349C127.189 91.786 126.627 92.6253 126.226 93.7528C125.825 94.8676 125.625 96.2717 125.625 97.9639C125.625 99.6551 125.825 101.065 126.226 102.194C126.627 103.309 127.189 104.148 127.911 104.712C128.633 105.263 129.475 105.537 130.438 105.537C131.253 105.537 131.976 105.35 132.604 104.974C133.233 104.584 133.741 104.02 134.129 103.282C134.53 102.529 134.771 101.869 134.851 100.795H145.121C145.08 103.522 144.459 105.645 143.255 107.673C142.052 109.688 140.347 111.246 138.141 112.347C135.948 113.448 133.327 113.999 130.278 113.999Z" fill="black"/>
<path fill-rule="evenodd" clip-rule="evenodd" d="M111.102 82.2227H111.427V114.132H100.424V91.2255C102.11 90.317 103.712 89.2137 105.189 88.016C107.539 86.1111 109.566 83.9977 111.102 82.2227ZM97.122 92.6976V114.132C97.122 125.688 86.119 125.688 86.119 125.688H71.8174V117.439L82.8205 117.435C84.0778 117.435 86.119 117.435 86.119 114.132V92.7259C87.8929 93.341 89.7266 93.6983 91.5781 93.6983C93.4568 93.6983 95.3198 93.3295 97.122 92.6976ZM82.8184 91.2653V114.132H71.8143V82.2227L72.1129 82.2206C73.6385 83.9956 75.6524 86.108 77.989 88.0118C79.4842 89.2283 81.1073 90.3474 82.8184 91.2653Z" fill="black"/>
<path d="M91.578 81.5199C78.1545 81.5199 71.8109 76.3126 71.8109 76.3126C71.8109 76.3126 81.1986 90.2985 91.578 90.2985C101.956 90.2985 111.425 76.3126 111.425 76.3126C111.425 76.3126 105.001 81.5199 91.578 81.5199Z" fill="black"/>
<path d="M20.0001 114.132V82.2227H31.0031V88.8239C31.6559 86.855 32.7697 85.1314 34.3456 83.983C35.9205 82.8346 37.7961 82.2227 39.9692 82.2227C42.1696 82.2227 44.0651 82.8073 45.6546 83.983C47.2431 85.145 48.2008 86.8969 48.5277 88.8239H48.8536C49.3828 86.8969 50.5102 85.1481 52.2359 83.9861C53.9606 82.8105 55.985 82.2227 58.308 82.2227C61.31 82.2227 63.7419 83.1929 65.6029 85.1345C67.4774 87.0761 68.4152 89.66 68.4152 92.8862V114.132H57.9612V95.4261C57.9612 95.4261 57.9612 91.5754 53.8349 91.5754C49.9842 91.5754 49.7086 95.4261 49.7086 95.4261V114.132H39.2557V95.4261C39.2557 95.4261 39.2557 91.5754 35.1294 91.5754C31.2787 91.5754 31.0031 95.4261 31.0031 95.4261V114.132H20.0001Z" fill="black"/>
</g>
<defs>
<clipPath id="clip0_65_78">
<rect width="200" height="200" fill="white"/>
</clipPath>
</defs>
</svg>
