<svg width="42" height="44" viewBox="0 0 42 44" fill="none" xmlns="http://www.w3.org/2000/svg">
<path d="M0.0483398 5.20834C0.0483398 2.51595 2.23095 0.333336 4.92334 0.333336H13.9583C16.6507 0.333336 18.8333 2.51595 18.8333 5.20834V9.91C18.8333 12.6024 16.6507 14.785 13.9583 14.785H4.92334C2.23095 14.785 0.0483398 12.6024 0.0483398 9.91V5.20834Z" fill="white"/>
<path d="M24.6183 5.20834C24.6183 2.51595 26.801 0.333336 29.4933 0.333336H37.0767C39.7691 0.333336 41.9517 2.51595 41.9517 5.20834V20.0067C41.9517 22.6991 39.7691 24.8817 37.0767 24.8817H29.4933C26.801 24.8817 24.6183 22.6991 24.6183 20.0067V5.20834Z" fill="white"/>
<path d="M24.6183 35.5417C24.6183 32.8493 26.801 30.6667 29.4933 30.6667H37.0767C39.7691 30.6667 41.9517 32.8493 41.9517 35.5417V38.7917C41.9517 41.4841 39.7691 43.6667 37.0767 43.6667H29.4933C26.801 43.6667 24.6183 41.4841 24.6183 38.7917V35.5417Z" fill="white"/>
<path d="M0.0483398 25.4233C0.0483398 22.7309 2.23095 20.5483 4.92334 20.5483H13.9583C16.6507 20.5483 18.8333 22.7309 18.8333 25.4233V38.7917C18.8333 41.4841 16.6507 43.6667 13.9583 43.6667H4.92334C2.23095 43.6667 0.0483398 41.4841 0.0483398 38.7917V25.4233Z" fill="white"/>
</svg>
