<svg width="200" height="200" viewBox="0 0 200 200" fill="none" xmlns="http://www.w3.org/2000/svg">
<path fill-rule="evenodd" clip-rule="evenodd" d="M100.074 13.2139C50.4548 13.2139 10.3423 52.9907 10.3423 102.2C10.3423 141.536 36.0438 174.832 71.6985 186.617C76.1562 187.503 77.7891 184.702 77.7891 182.347C77.7891 180.284 77.6421 173.212 77.6421 165.845C52.6809 171.149 47.483 155.237 47.483 155.237C43.4715 144.924 37.5279 142.273 37.5279 142.273C29.3581 136.822 38.123 136.822 38.123 136.822C47.1854 137.412 51.9407 145.956 51.9407 145.956C59.9617 159.509 72.8868 155.68 78.0866 153.322C78.8287 147.576 81.2072 143.599 83.7328 141.389C63.8244 139.326 42.8783 131.666 42.8783 97.4847C42.8783 87.7611 46.4415 79.8057 52.0877 73.6186C51.1968 71.4092 48.0762 62.2732 52.9803 50.0454C52.9803 50.0454 60.5568 47.6877 77.6403 59.1796C84.9543 57.2318 92.4972 56.2409 100.074 56.2325C107.651 56.2325 115.374 57.2649 122.506 59.1796C139.592 47.6877 147.168 50.0454 147.168 50.0454C152.072 62.2732 148.95 71.4092 148.059 73.6186C153.854 79.8057 157.27 87.7611 157.27 97.4847C157.27 131.666 136.324 139.178 116.267 141.389C119.536 144.188 122.357 149.491 122.357 157.889C122.357 169.822 122.211 179.4 122.211 182.345C122.211 184.702 123.845 187.503 128.301 186.619C163.956 174.831 189.657 141.536 189.657 102.2C189.804 52.9907 149.545 13.2139 100.074 13.2139Z" fill="black"/>
</svg>
