<svg width="12" height="20" viewBox="0 0 12 20" fill="none" xmlns="http://www.w3.org/2000/svg">
<path d="M10 19.5C9.60253 19.4985 9.22165 19.3404 8.94 19.06L0.94 11.06C0.656628 10.78 0.497139 10.3983 0.497139 9.99998C0.497139 9.60166 0.656628 9.21992 0.94 8.93998L8.94 0.939981C9.31394 0.538675 9.87711 0.373483 10.4086 0.50921C10.94 0.644938 11.355 1.05994 11.4908 1.5914C11.6265 2.12287 11.4613 2.68604 11.06 3.05998L4.12 9.99998L11.06 16.94C11.3434 17.2199 11.5029 17.6017 11.5029 18C11.5029 18.3983 11.3434 18.78 11.06 19.06C10.7783 19.3404 10.3975 19.4985 10 19.5Z" fill="#E01F3D"/>
</svg>
