<svg width="24" height="24" viewBox="0 0 24 24" fill="none" xmlns="http://www.w3.org/2000/svg">
<g opacity="0.7">
<path fill-rule="evenodd" clip-rule="evenodd" d="M4.06176 7.66946C5.48796 4.24482 8.82961 2.01017 12.5393 2.00026C16.5375 1.9792 20.0926 4.54019 21.339 8.33923C22.5853 12.1383 21.2381 16.3075 18.0044 18.6589C14.7707 21.0104 10.3893 21.0069 7.15934 18.6503L4.27934 21.5303C3.98652 21.8227 3.51216 21.8227 3.21934 21.5303C2.92689 21.2374 2.92689 20.7631 3.21934 20.4703L6.00934 17.6803C3.40324 15.0401 2.63556 11.0941 4.06176 7.66946ZM5.39891 14.1692C6.59638 17.0549 9.41508 18.9343 12.5393 18.9303V18.8903C16.7796 18.8849 20.2219 15.4605 20.2493 11.2203C20.2534 8.09599 18.374 5.2773 15.4883 4.07983C12.6026 2.88236 9.27967 3.54221 7.07048 5.7514C4.86129 7.96059 4.20144 11.2835 5.39891 14.1692Z" fill="black"/>
</g>
</svg>
