<svg width="57" height="19" viewBox="0 0 57 19" fill="none" xmlns="http://www.w3.org/2000/svg">
<path d="M49.2013 11.977L49.23 7.34099H49.7481L52.4246 3.69431H56.8853L52.3958 9.37624H51.2734L49.2013 11.977ZM45.6327 14.5494V0.000152588H49.5525V14.5494H45.6327ZM52.4533 14.5494L49.9206 10.2526L52.5108 7.48226L57.0003 14.5494H52.4533Z" fill="white"/>
<path d="M39.2865 14.5007C38.0954 14.5007 37.0759 14.258 36.2282 13.7722C35.3801 13.2813 34.7298 12.5995 34.2774 11.7258C33.8246 10.8475 33.5984 9.82915 33.5984 8.67102C33.5984 7.51327 33.8246 6.49718 34.2774 5.62389C34.7298 4.74562 35.3801 4.06338 36.2282 3.57753C37.0759 3.08672 38.0954 2.84169 39.2865 2.84169C40.363 2.84169 41.2944 3.04269 42.0805 3.44507C42.8711 3.84247 43.4833 4.4068 43.9167 5.13805C44.3504 5.86432 44.5696 6.68478 44.5744 7.66603H40.9155C40.8632 7.07222 40.6964 6.65415 40.4153 6.34518C40.1391 6.03124 39.7818 5.87427 39.3436 5.87427C39.0006 5.87427 38.7004 5.97726 38.4432 6.18324C38.1861 6.38462 37.986 6.69128 37.843 7.10323C37.7 7.51059 37.6287 8.02361 37.6287 8.64192C37.6287 9.25985 37.7 9.77517 37.843 10.1875C37.986 10.5949 38.1861 10.9015 38.4432 11.1075C38.7004 11.3089 39.0006 11.4092 39.3436 11.4092C39.634 11.4092 39.8916 11.3407 40.1152 11.2032C40.3392 11.0608 40.5202 10.8548 40.6583 10.5849C40.8013 10.31 40.8871 10.0688 40.9155 9.67639H44.5744C44.5599 10.6726 44.3385 11.4486 43.9096 12.1894C43.4811 12.9257 42.8737 13.495 42.0876 13.8974C41.3063 14.2997 40.3727 14.5007 39.2865 14.5007Z" fill="white"/>
<path fill-rule="evenodd" clip-rule="evenodd" d="M32.4551 2.89032H32.5708V14.5494H28.6509V6.1798C29.2515 5.84787 29.8223 5.44472 30.3486 5.00712C31.1859 4.31109 31.9078 3.53888 32.4551 2.89032ZM27.4747 6.71771V14.5494C27.4747 18.7719 23.5549 18.7719 23.5549 18.7719H18.46V15.7577L22.3798 15.7565C22.8277 15.7565 23.5549 15.7565 23.5549 14.5494V6.72805C24.1868 6.95278 24.8401 7.08334 25.4997 7.08334C26.169 7.08334 26.8327 6.94857 27.4747 6.71771ZM22.379 6.19435V14.5494H18.4588V2.89032L18.5652 2.88956C19.1087 3.53811 19.8262 4.30994 20.6586 5.00559C21.1913 5.45008 21.7695 5.85897 22.379 6.19435Z" fill="white"/>
<path d="M25.4997 2.63352C20.7175 2.63352 18.4576 0.730881 18.4576 0.730881C18.4576 0.730881 21.802 5.8411 25.4997 5.8411C29.1969 5.8411 32.5701 0.730881 32.5701 0.730881C32.5701 0.730881 30.2818 2.63352 25.4997 2.63352Z" fill="white"/>
<path d="M3.05176e-05 14.5494V2.89032H3.91987V5.3023C4.15242 4.58292 4.54922 3.95312 5.11064 3.53351C5.67168 3.11391 6.33986 2.89032 7.11405 2.89032C7.89794 2.89032 8.57321 3.10395 9.13947 3.53351C9.70537 3.9581 10.0466 4.59823 10.163 5.3023H10.2791C10.4676 4.59823 10.8693 3.95925 11.4841 3.53466C12.0985 3.1051 12.8197 2.89032 13.6472 2.89032C14.7167 2.89032 15.5831 3.24484 16.246 3.95427C16.9138 4.6637 17.2479 5.60781 17.2479 6.78662V14.5494H13.5237V7.71466C13.5237 7.71466 13.5237 6.30767 12.0537 6.30767C10.6819 6.30767 10.5837 7.71466 10.5837 7.71466V14.5494H6.85984V7.71466C6.85984 7.71466 6.85984 6.30767 5.38985 6.30767C4.01804 6.30767 3.91987 7.71466 3.91987 7.71466V14.5494H3.05176e-05Z" fill="white"/>
</svg>
