<svg width="24" height="24" viewBox="0 0 24 24" fill="none" xmlns="http://www.w3.org/2000/svg">
<path d="M1.62 14.75C1.62 13.5074 2.62735 12.5 3.87 12.5H7.37C8.61264 12.5 9.62 13.5074 9.62 14.75V18.25C9.62 19.4926 8.61264 20.5 7.37 20.5H3.87C2.62735 20.5 1.62 19.4926 1.62 18.25V14.75Z" fill="black"/>
<path d="M13.62 13.75C13.2058 13.75 12.87 14.0858 12.87 14.5C12.87 14.9142 13.2058 15.25 13.62 15.25H18.62C19.0342 15.25 19.37 14.9142 19.37 14.5C19.37 14.0858 19.0342 13.75 18.62 13.75H13.62Z" fill="black"/>
<path d="M21.62 17.75H13.62C13.2058 17.75 12.87 18.0858 12.87 18.5C12.87 18.9142 13.2058 19.25 13.62 19.25H21.62C22.0342 19.25 22.37 18.9142 22.37 18.5C22.37 18.0858 22.0342 17.75 21.62 17.75Z" fill="black"/>
<path d="M1.62 5.5C1.62 4.39543 2.51543 3.5 3.62 3.5H19.62C20.7246 3.5 21.62 4.39543 21.62 5.5V8.5C21.62 9.60457 20.7246 10.5 19.62 10.5H3.62C2.51543 10.5 1.62 9.60457 1.62 8.5V5.5Z" fill="black"/>
</svg>
