<svg width="24" height="24" viewBox="0 0 24 24" fill="none" xmlns="http://www.w3.org/2000/svg">
<path d="M16 21.5C15.6025 21.4986 15.2216 21.3405 14.94 21.06L6.93999 13.06C6.65662 12.7801 6.49713 12.3983 6.49713 12C6.49713 11.6017 6.65662 11.2199 6.93999 10.94L14.94 2.94C15.3139 2.53869 15.8771 2.3735 16.4086 2.50923C16.94 2.64495 17.355 3.05995 17.4908 3.59142C17.6265 4.12289 17.4613 4.68606 17.06 5.06L10.12 12L17.06 18.94C17.3434 19.2199 17.5029 19.6017 17.5029 20C17.5029 20.3983 17.3434 20.7801 17.06 21.06C16.7783 21.3405 16.3975 21.4986 16 21.5Z" fill="black"/>
</svg>
