<svg width="52" height="52" viewBox="0 0 52 52" fill="none" xmlns="http://www.w3.org/2000/svg">
<path d="M16.2717 8.92666C16.2717 10.8771 14.6905 12.4583 12.74 12.4583C10.7895 12.4583 9.20834 10.8771 9.20834 8.92666C9.20834 6.97617 10.7895 5.39499 12.74 5.39499C14.6905 5.39499 16.2717 6.97617 16.2717 8.92666Z" fill="white"/>
<path d="M29.5317 8.92666C29.5317 10.8771 27.9505 12.4583 26 12.4583C24.0495 12.4583 22.4683 10.8771 22.4683 8.92666C22.4683 6.97617 24.0495 5.39499 26 5.39499C27.9505 5.39499 29.5317 6.97617 29.5317 8.92666Z" fill="white"/>
<path d="M42.8133 8.92666C42.8133 10.8771 41.2322 12.4583 39.2817 12.4583C37.3312 12.4583 35.75 10.8771 35.75 8.92666C35.75 6.97617 37.3312 5.39499 39.2817 5.39499C41.2322 5.39499 42.8133 6.97617 42.8133 8.92666Z" fill="white"/>
<path d="M16.2717 20.3017C16.2717 22.2521 14.6905 23.8333 12.74 23.8333C10.7895 23.8333 9.20834 22.2521 9.20834 20.3017C9.20834 18.3512 10.7895 16.77 12.74 16.77C14.6905 16.77 16.2717 18.3512 16.2717 20.3017Z" fill="white"/>
<path d="M29.5317 20.3017C29.5317 22.2521 27.9505 23.8333 26 23.8333C24.0495 23.8333 22.4683 22.2521 22.4683 20.3017C22.4683 18.3512 24.0495 16.77 26 16.77C27.9505 16.77 29.5317 18.3512 29.5317 20.3017Z" fill="white"/>
<path d="M42.8133 20.3017C42.8133 22.2521 41.2322 23.8333 39.2817 23.8333C37.3312 23.8333 35.75 22.2521 35.75 20.3017C35.75 18.3512 37.3312 16.77 39.2817 16.77C41.2322 16.77 42.8133 18.3512 42.8133 20.3017Z" fill="white"/>
<path d="M16.2717 31.6767C16.2717 33.6271 14.6905 35.2083 12.74 35.2083C10.7895 35.2083 9.20834 33.6271 9.20834 31.6767C9.20834 29.7262 10.7895 28.145 12.74 28.145C14.6905 28.145 16.2717 29.7262 16.2717 31.6767Z" fill="white"/>
<path d="M29.5317 31.6767C29.5317 33.6271 27.9505 35.2083 26 35.2083C24.0495 35.2083 22.4683 33.6271 22.4683 31.6767C22.4683 29.7262 24.0495 28.145 26 28.145C27.9505 28.145 29.5317 29.7262 29.5317 31.6767Z" fill="white"/>
<path d="M42.8133 31.6767C42.8133 33.6271 41.2322 35.2083 39.2817 35.2083C37.3312 35.2083 35.75 33.6271 35.75 31.6767C35.75 29.7262 37.3312 28.145 39.2817 28.145C41.2322 28.145 42.8133 29.7262 42.8133 31.6767Z" fill="white"/>
<path d="M29.5317 43.0517C29.5317 45.0021 27.9505 46.5833 26 46.5833C24.0495 46.5833 22.4683 45.0021 22.4683 43.0517C22.4683 41.1012 24.0495 39.52 26 39.52C27.9505 39.52 29.5317 41.1012 29.5317 43.0517Z" fill="white"/>
</svg>
