<svg width="36" height="40" viewBox="0 0 36 40" fill="none" xmlns="http://www.w3.org/2000/svg">
<path fill-rule="evenodd" clip-rule="evenodd" d="M26.6241 0.530426H9.54261C4.45699 0.530426 0.334274 4.65314 0.334274 9.73876V30.4575C0.334274 35.5431 4.45699 39.6658 9.54261 39.6658H26.6241C29.0663 39.6658 31.4084 38.6957 33.1353 36.9688C34.8622 35.2419 35.8324 32.8997 35.8324 30.4575V9.73876C35.8324 4.65314 31.7097 0.530426 26.6241 0.530426ZM18.0833 33.2891C17.1298 33.2891 16.3568 32.5161 16.3568 31.5625C16.3568 30.609 17.1298 29.8359 18.0833 29.8359C19.0369 29.8359 19.8099 30.609 19.8099 31.5625C19.7975 32.5109 19.0317 33.2767 18.0833 33.2891ZM10.6936 17.75H25.473C26.4266 17.75 27.1996 16.977 27.1996 16.0234C27.1996 15.0699 26.4266 14.2969 25.473 14.2969H10.6936C9.7401 14.2969 8.96709 15.0699 8.96709 16.0234C8.96709 16.977 9.7401 17.75 10.6936 17.75Z" fill="white"/>
</svg>
