<svg width="24" height="24" viewBox="0 0 24 24" fill="none" xmlns="http://www.w3.org/2000/svg">
<path d="M7.51 4.12C7.51 5.02023 6.78022 5.75 5.88 5.75C4.97978 5.75 4.25 5.02023 4.25 4.12C4.25 3.21978 4.97978 2.49 5.88 2.49C6.78022 2.49 7.51 3.21978 7.51 4.12Z" fill="black"/>
<path d="M13.63 4.12C13.63 5.02023 12.9002 5.75 12 5.75C11.0998 5.75 10.37 5.02023 10.37 4.12C10.37 3.21978 11.0998 2.49 12 2.49C12.9002 2.49 13.63 3.21978 13.63 4.12Z" fill="black"/>
<path d="M19.76 4.12C19.76 5.02023 19.0302 5.75 18.13 5.75C17.2298 5.75 16.5 5.02023 16.5 4.12C16.5 3.21978 17.2298 2.49 18.13 2.49C19.0302 2.49 19.76 3.21978 19.76 4.12Z" fill="black"/>
<path d="M7.51 9.37C7.51 10.2702 6.78022 11 5.88 11C4.97978 11 4.25 10.2702 4.25 9.37C4.25 8.46978 4.97978 7.74 5.88 7.74C6.78022 7.74 7.51 8.46978 7.51 9.37Z" fill="black"/>
<path d="M13.63 9.37C13.63 10.2702 12.9002 11 12 11C11.0998 11 10.37 10.2702 10.37 9.37C10.37 8.46978 11.0998 7.74 12 7.74C12.9002 7.74 13.63 8.46978 13.63 9.37Z" fill="black"/>
<path d="M19.76 9.37C19.76 10.2702 19.0302 11 18.13 11C17.2298 11 16.5 10.2702 16.5 9.37C16.5 8.46978 17.2298 7.74 18.13 7.74C19.0302 7.74 19.76 8.46978 19.76 9.37Z" fill="black"/>
<path d="M7.51 14.62C7.51 15.5202 6.78022 16.25 5.88 16.25C4.97978 16.25 4.25 15.5202 4.25 14.62C4.25 13.7198 4.97978 12.99 5.88 12.99C6.78022 12.99 7.51 13.7198 7.51 14.62Z" fill="black"/>
<path d="M13.63 14.62C13.63 15.5202 12.9002 16.25 12 16.25C11.0998 16.25 10.37 15.5202 10.37 14.62C10.37 13.7198 11.0998 12.99 12 12.99C12.9002 12.99 13.63 13.7198 13.63 14.62Z" fill="black"/>
<path d="M19.76 14.62C19.76 15.5202 19.0302 16.25 18.13 16.25C17.2298 16.25 16.5 15.5202 16.5 14.62C16.5 13.7198 17.2298 12.99 18.13 12.99C19.0302 12.99 19.76 13.7198 19.76 14.62Z" fill="black"/>
<path d="M13.63 19.87C13.63 20.7702 12.9002 21.5 12 21.5C11.0998 21.5 10.37 20.7702 10.37 19.87C10.37 18.9698 11.0998 18.24 12 18.24C12.9002 18.24 13.63 18.9698 13.63 19.87Z" fill="black"/>
</svg>
