<svg width="28" height="28" viewBox="0 0 28 28" fill="none" xmlns="http://www.w3.org/2000/svg">
<path fill-rule="evenodd" clip-rule="evenodd" d="M23.6717 8.16722L17.185 3.37222C15.2876 1.98703 12.7124 1.98703 10.815 3.37222L4.34001 8.16722C3.08636 9.07038 2.34046 10.5188 2.33334 12.0639V20.7322C2.40337 23.5244 4.7211 25.7325 7.51334 25.6672H20.4867C23.2789 25.7325 25.5966 23.5244 25.6667 20.7322V12.0522C25.6567 10.5138 24.9161 9.07172 23.6717 8.16722ZM23.9167 20.7322C23.8471 22.558 22.3126 23.9829 20.4867 23.9172H7.51334C5.68982 23.9764 4.1592 22.5551 4.08334 20.7322V12.0639C4.08957 11.0721 4.57121 10.1436 5.37834 9.56722L11.8533 4.78389C13.1321 3.85006 14.8679 3.85006 16.1467 4.78389L22.6217 9.57889C23.4281 10.1452 23.9107 11.0668 23.9167 12.0522V20.7322ZM8.75001 18.3756H19.25C19.7333 18.3756 20.125 18.7673 20.125 19.2506C20.125 19.7338 19.7333 20.1256 19.25 20.1256H8.75001C8.26676 20.1256 7.87501 19.7338 7.87501 19.2506C7.87501 18.7673 8.26676 18.3756 8.75001 18.3756Z" fill="#E01F3D"/>
</svg>
