<svg width="28" height="28" viewBox="0 0 28 28" fill="none" xmlns="http://www.w3.org/2000/svg">
<g opacity="0.7">
<path fill-rule="evenodd" clip-rule="evenodd" d="M9.77168 3.50506H18.2283C19.2219 3.45428 20.1955 3.78724 20.9344 4.43045C21.6733 5.07366 22.1167 5.97425 22.1666 6.93346V23.3291C22.168 23.6575 22.0259 23.9712 21.7752 24.1932C21.5246 24.4151 21.1886 24.5248 20.8498 24.4953C20.5529 24.4953 20.2642 24.401 20.0283 24.2271L14.7973 20.3905C14.3033 20.0329 13.6241 20.0329 13.1301 20.3905L7.94747 24.2271C7.71813 24.3963 7.43875 24.4902 7.15013 24.4953C6.81135 24.5248 6.47535 24.4151 6.2247 24.1932C5.97404 23.9712 5.83194 23.6575 5.83332 23.3291V6.93346C5.88328 5.97425 6.32663 5.07366 7.06552 4.43045C7.8044 3.78724 8.77809 3.45428 9.77168 3.50506ZM15.9208 19.0028L20.3303 22.268L20.3062 6.93346C20.1918 5.91679 19.2602 5.17252 18.2041 5.25424H9.74752C8.69146 5.17252 7.75978 5.91679 7.64545 6.93346V22.268L12.055 19.0028C13.1967 18.1631 14.779 18.1631 15.9208 19.0028Z" fill="#1D1D1D"/>
</g>
</svg>
