<svg width="24" height="24" viewBox="0 0 24 24" fill="none" xmlns="http://www.w3.org/2000/svg">
<path d="M20.05 11.47L13.05 4.47C12.8571 4.28244 12.5788 4.21205 12.3199 4.28534C12.061 4.35863 11.8608 4.56448 11.7949 4.82534C11.7289 5.0862 11.8071 5.36244 12 5.55L17.71 11.25H4.48001C4.0658 11.25 3.73001 11.5858 3.73001 12C3.73001 12.4142 4.0658 12.75 4.48001 12.75H17.7L12 18.45C11.8571 18.5893 11.7764 18.7804 11.7764 18.98C11.7764 19.1796 11.8571 19.3707 12 19.51C12.1379 19.6546 12.3303 19.7345 12.53 19.73C12.7291 19.7309 12.9201 19.6516 13.06 19.51L20.06 12.51C20.3525 12.2172 20.3525 11.7428 20.06 11.45L20.05 11.47Z" fill="black"/>
</svg>
